<svg xmlns="http://www.w3.org/2000/svg" viewBox="0 0 600 200" width="600" height="200" aria-label="Erasmus+ logo" role="img">
  <rect width="600" height="200" fill="#0a4fa3" rx="12"/>
  <rect x="20" y="20" width="160" height="160" fill="#003399" rx="8"/>
  <g transform="translate(100,100)">
    <g fill="#ffcc00">
      <path d="M0,-55 l6,18 h19 l-15,11 6,18 -16,-11 -16,11 6,-18 -15,-11 h19z"/>
      <g transform="rotate(30)">
        <path d="M0,-55 l6,18 h19 l-15,11 6,18 -16,-11 -16,11 6,-18 -15,-11 h19z"/>
      </g>
      <g transform="rotate(60)">
        <path d="M0,-55 l6,18 h19 l-15,11 6,18 -16,-11 -16,11 6,-18 -15,-11 h19z"/>
      </g>
      <g transform="rotate(90)">
        <path d="M0,-55 l6,18 h19 l-15,11 6,18 -16,-11 -16,11 6,-18 -15,-11 h19z"/>
      </g>
      <g transform="rotate(120)">
        <path d="M0,-55 l6,18 h19 l-15,11 6,18 -16,-11 -16,11 6,-18 -15,-11 h19z"/>
      </g>
      <g transform="rotate(150)">
        <path d="M0,-55 l6,18 h19 l-15,11 6,18 -16,-11 -16,11 6,-18 -15,-11 h19z"/>
      </g>
      <g transform="rotate(180)">
        <path d="M0,-55 l6,18 h19 l-15,11 6,18 -16,-11 -16,11 6,-18 -15,-11 h19z"/>
      </g>
    </g>
  </g>
  <text x="200" y="120" font-family="Inter, Arial, sans-serif" font-size="60" fill="#ffffff" font-weight="700">Erasmus+</text>
</svg>

